<svg width="1200" height="337" viewBox="0 0 1200 337" fill="none" xmlns="http://www.w3.org/2000/svg">
<g clip-path="url(#clip0_981_11383)">
<path d="M400.004 143.465C410.301 125.544 427.572 115.121 449.168 115.121C490.682 115.121 516.593 142.493 516.593 186.814V277.736H479.394V191.386C479.394 166.295 463.79 150.001 440.2 150.001C416.61 150.001 400.015 166.295 400.015 191.386V277.736H363.152V118.374H400.015V143.465H400.004Z" fill="white"/>
<path d="M718.019 277.725H680.829V249.698C669.193 269.583 649.274 280.977 623.363 280.977C579.844 280.977 545.641 243.827 545.641 197.88C545.641 151.933 579.844 115.109 623.363 115.109C649.264 115.109 669.193 126.514 680.829 146.389V118.362H718.019V277.714V277.725ZM631.329 246.445C659.561 246.445 680.819 225.589 680.819 197.89C680.819 170.191 659.561 149.662 631.329 149.662C603.097 149.662 582.165 171.162 582.165 197.89C582.165 224.617 603.761 246.445 631.329 246.445Z" fill="white"/>
<path d="M746.672 197.888C746.672 151.941 780.876 115.118 824.394 115.118C850.295 115.118 870.224 126.523 881.861 146.397V49.6133H919.05V277.723H881.861V249.696C870.224 269.581 850.305 280.975 824.394 280.975C780.876 280.975 746.672 243.825 746.672 197.878V197.888ZM832.36 246.443C860.592 246.443 881.85 225.587 881.85 197.888C881.85 170.189 860.592 149.66 832.36 149.66C804.128 149.66 783.197 171.16 783.197 197.888C783.197 224.615 804.793 246.443 832.36 246.443Z" fill="white"/>
<path d="M980.617 44.3984C993.91 44.3984 1004.53 55.1488 1004.53 67.863C1004.53 80.5772 993.91 91.0002 980.617 91.0002C967.324 91.0002 957.037 80.2499 957.037 67.863C957.037 55.4761 967.661 44.3984 980.617 44.3984ZM998.889 118.372V277.724H962.027V118.372H998.889Z" fill="white"/>
<path d="M1200 277.725H1162.79V249.698C1151.16 269.583 1131.23 280.977 1105.33 280.977C1061.83 280.977 1027.61 243.827 1027.61 197.88C1027.61 151.933 1061.83 115.109 1105.33 115.109C1131.23 115.109 1151.16 126.514 1162.79 146.389V118.362H1200V277.714V277.725ZM1113.31 246.445C1141.54 246.445 1162.8 225.589 1162.8 197.89C1162.8 170.191 1141.54 149.662 1113.31 149.662C1085.08 149.662 1064.15 171.162 1064.15 197.89C1064.15 224.617 1085.74 246.445 1113.31 246.445Z" fill="white"/>
<path d="M336.299 118.375L280.357 292.671C270.878 322.334 254.374 337.013 222.584 337.013H191.714L192.256 304.598H217.318C232.911 304.598 239.629 298.788 247.585 277.686H223.596L169.494 118.375H209.301L252.472 261.781L296.492 118.375H336.299Z" fill="white"/>
<path d="M146.027 167.05C136.876 155.307 126.548 148.137 113.992 139.995L100.085 132.047L81.4036 160.964L80.2481 160.248C78.8984 159.399 76.7613 158.182 74.2254 156.729C68.5299 153.476 60.728 149.027 55.4211 145.12C37.9563 132.293 36.8622 115.139 41.6579 103.377C47.793 88.2688 63.9695 79.5233 84.8291 79.9631C92.9173 80.1575 100.095 81.211 106.793 83.1647C109.329 83.9011 111.762 84.7399 114.022 85.6298C119.943 87.9415 125.505 90.8873 130.546 94.3753L131.671 95.1527L151.518 64.7429L150.414 64.0064C143.348 59.3114 135.7 55.3427 127.683 52.1923C105.085 43.3445 80.0641 41.5545 58.6421 47.3541C36.2282 53.43 18.4771 68.1388 9.92876 87.7062C-0.0715768 110.629 2.59723 136.272 16.9024 154.643C26.0336 166.365 36.3714 173.535 48.9792 181.728L62.6095 189.747L81.4036 160.974L82.5488 161.69C83.9804 162.58 86.2811 163.859 88.9499 165.332C94.584 168.451 102.304 172.737 107.499 176.552C124.974 189.4 126.078 206.543 121.282 218.316C115.127 233.424 99.1138 242.22 78.0804 241.719C70.1046 241.545 62.9163 240.502 56.1267 238.528C53.7033 237.822 51.2696 236.994 48.8974 236.073C38.2835 231.91 28.774 225.701 21.422 218.122L20.2563 216.925L0 247.959L0.86915 248.726C10.7877 257.441 22.3525 264.427 35.2466 269.48C49.0508 274.891 63.8365 277.745 77.9986 277.745C87.0991 277.745 95.944 276.599 104.278 274.328C126.681 268.242 144.422 253.533 152.97 233.976C162.991 211.054 160.322 185.41 146.017 167.04L146.027 167.05Z" fill="white"/>
</g>
<defs>
<clipPath id="clip0_981_11383">
<rect width="1200" height="337" fill="white"/>
</clipPath>
</defs>
</svg>
