<svg width="467" height="467" viewBox="0 0 467 467" fill="none" xmlns="http://www.w3.org/2000/svg">
<rect x="12.6621" y="58.8271" width="35.0064" height="0.744817" fill="#20432C"/>
<rect x="58.8398" y="105.75" width="35.0064" height="0.744817" transform="rotate(-90 58.8398 105.75)" fill="#20432C"/>
<rect x="70.7578" y="58.8271" width="35.0064" height="0.744817" fill="#20432C"/>
<rect x="58.8398" y="47.6553" width="35.0064" height="0.744817" transform="rotate(-90 58.8398 47.6553)" fill="#20432C"/>
<rect x="58.0957" y="58.0825" width="2.23445" height="2.23445" fill="#4E7E2B"/>
<rect y="58.0825" width="2.23445" height="2.23445" fill="#4E7E2B"/>
<rect x="58.0957" y="118.425" width="2.23445" height="2.23445" transform="rotate(-90 58.0957 118.425)" fill="#4E7E2B"/>
<rect x="116.191" y="58.0825" width="2.23445" height="2.23445" fill="#4E7E2B"/>
<rect x="58.0957" y="2.23486" width="2.23445" height="2.23445" transform="rotate(-90 58.0957 2.23486)" fill="#4E7E2B"/>
<rect x="245.044" y="58.8267" width="35.0064" height="0.744817" fill="#20432C"/>
<rect x="291.223" y="105.75" width="35.0064" height="0.744817" transform="rotate(-90 291.223 105.75)" fill="#20432C"/>
<rect x="303.141" y="58.8267" width="35.0064" height="0.744817" fill="#20432C"/>
<rect x="291.223" y="47.6553" width="35.0064" height="0.744817" transform="rotate(-90 291.223 47.6553)" fill="#20432C"/>
<rect x="290.479" y="58.0825" width="2.23445" height="2.23445" fill="#4E7E2B"/>
<rect x="232.382" y="58.0825" width="2.23445" height="2.23445" fill="#4E7E2B"/>
<rect x="290.479" y="118.425" width="2.23445" height="2.23445" transform="rotate(-90 290.479 118.425)" fill="#4E7E2B"/>
<rect x="348.573" y="58.0825" width="2.23445" height="2.23445" fill="#4E7E2B"/>
<rect x="290.479" y="2.23486" width="2.23445" height="2.23445" transform="rotate(-90 290.479 2.23486)" fill="#4E7E2B"/>
<rect x="12.6621" y="175.022" width="35.0064" height="0.744817" fill="#20432C"/>
<rect x="58.8398" y="221.946" width="35.0064" height="0.744817" transform="rotate(-90 58.8398 221.946)" fill="#20432C"/>
<rect x="70.7578" y="175.022" width="35.0064" height="0.744817" fill="#20432C"/>
<rect x="58.8398" y="163.848" width="35.0064" height="0.744817" transform="rotate(-90 58.8398 163.848)" fill="#20432C"/>
<rect x="58.0957" y="174.278" width="2.23445" height="2.23445" fill="#4E7E2B"/>
<rect y="174.278" width="2.23445" height="2.23445" fill="#4E7E2B"/>
<rect x="58.0957" y="234.618" width="2.23445" height="2.23445" transform="rotate(-90 58.0957 234.618)" fill="#4E7E2B"/>
<rect x="116.191" y="174.278" width="2.23445" height="2.23445" fill="#4E7E2B"/>
<rect x="58.0957" y="118.428" width="2.23445" height="2.23445" transform="rotate(-90 58.0957 118.428)" fill="#4E7E2B"/>
<rect x="245.044" y="175.022" width="35.0064" height="0.744817" fill="#20432C"/>
<rect x="291.223" y="221.946" width="35.0064" height="0.744817" transform="rotate(-90 291.223 221.946)" fill="#20432C"/>
<rect x="303.141" y="175.022" width="35.0064" height="0.744817" fill="#20432C"/>
<rect x="291.223" y="163.848" width="35.0064" height="0.744817" transform="rotate(-90 291.223 163.848)" fill="#20432C"/>
<rect x="290.479" y="174.278" width="2.23445" height="2.23445" fill="#4E7E2B"/>
<rect x="232.382" y="174.278" width="2.23445" height="2.23445" fill="#4E7E2B"/>
<rect x="290.479" y="234.618" width="2.23445" height="2.23445" transform="rotate(-90 290.479 234.618)" fill="#4E7E2B"/>
<rect x="348.573" y="174.278" width="2.23445" height="2.23445" fill="#4E7E2B"/>
<rect x="290.479" y="118.428" width="2.23445" height="2.23445" transform="rotate(-90 290.479 118.428)" fill="#4E7E2B"/>
<rect x="128.854" y="58.8267" width="35.0064" height="0.744817" fill="#20432C"/>
<rect x="175.033" y="105.75" width="35.0064" height="0.744817" transform="rotate(-90 175.033 105.75)" fill="#20432C"/>
<rect x="186.949" y="58.8267" width="35.0064" height="0.744817" fill="#20432C"/>
<rect x="175.033" y="47.6553" width="35.0064" height="0.744817" transform="rotate(-90 175.033 47.6553)" fill="#20432C"/>
<rect x="174.287" y="58.0825" width="2.23445" height="2.23445" fill="#4E7E2B"/>
<rect x="116.191" y="58.0825" width="2.23445" height="2.23445" fill="#4E7E2B"/>
<rect x="174.287" y="118.425" width="2.23445" height="2.23445" transform="rotate(-90 174.287 118.425)" fill="#4E7E2B"/>
<rect x="232.383" y="58.0825" width="2.23445" height="2.23445" fill="#4E7E2B"/>
<rect x="174.287" y="2.23438" width="2.23445" height="2.23445" transform="rotate(-90 174.287 2.23438)" fill="#4E7E2B"/>
<rect x="361.236" y="58.8267" width="35.0064" height="0.744817" fill="#20432C"/>
<rect x="407.415" y="105.75" width="35.0064" height="0.744817" transform="rotate(-90 407.415 105.75)" fill="#20432C"/>
<rect x="419.332" y="58.8267" width="35.0064" height="0.744817" fill="#20432C"/>
<rect x="407.415" y="47.6553" width="35.0064" height="0.744817" transform="rotate(-90 407.415 47.6553)" fill="#20432C"/>
<rect x="406.669" y="58.0825" width="2.23445" height="2.23445" fill="#4E7E2B"/>
<rect x="348.574" y="58.0825" width="2.23445" height="2.23445" fill="#4E7E2B"/>
<rect x="406.669" y="118.425" width="2.23445" height="2.23445" transform="rotate(-90 406.669 118.425)" fill="#4E7E2B"/>
<rect x="464.765" y="58.0825" width="2.23445" height="2.23445" fill="#4E7E2B"/>
<rect x="406.669" y="2.23438" width="2.23445" height="2.23445" transform="rotate(-90 406.669 2.23438)" fill="#4E7E2B"/>
<rect x="128.854" y="175.022" width="35.0064" height="0.744817" fill="#20432C"/>
<rect x="175.033" y="221.946" width="35.0064" height="0.744817" transform="rotate(-90 175.033 221.946)" fill="#20432C"/>
<rect x="186.949" y="175.022" width="35.0064" height="0.744817" fill="#20432C"/>
<rect x="175.033" y="163.848" width="35.0064" height="0.744817" transform="rotate(-90 175.033 163.848)" fill="#20432C"/>
<rect x="174.287" y="174.278" width="2.23445" height="2.23445" fill="#4E7E2B"/>
<rect x="116.191" y="174.278" width="2.23445" height="2.23445" fill="#4E7E2B"/>
<rect x="174.287" y="234.618" width="2.23445" height="2.23445" transform="rotate(-90 174.287 234.618)" fill="#4E7E2B"/>
<rect x="232.383" y="174.278" width="2.23445" height="2.23445" fill="#4E7E2B"/>
<rect x="174.287" y="118.428" width="2.23445" height="2.23445" transform="rotate(-90 174.287 118.428)" fill="#4E7E2B"/>
<rect x="361.236" y="175.022" width="35.0064" height="0.744817" fill="#20432C"/>
<rect x="407.415" y="221.946" width="35.0064" height="0.744817" transform="rotate(-90 407.415 221.946)" fill="#20432C"/>
<rect x="419.332" y="175.022" width="35.0064" height="0.744817" fill="#20432C"/>
<rect x="407.415" y="163.848" width="35.0064" height="0.744817" transform="rotate(-90 407.415 163.848)" fill="#20432C"/>
<rect x="406.669" y="174.278" width="2.23445" height="2.23445" fill="#4E7E2B"/>
<rect x="348.574" y="174.278" width="2.23445" height="2.23445" fill="#4E7E2B"/>
<rect x="406.669" y="234.618" width="2.23445" height="2.23445" transform="rotate(-90 406.669 234.618)" fill="#4E7E2B"/>
<rect x="464.765" y="174.278" width="2.23445" height="2.23445" fill="#4E7E2B"/>
<rect x="406.669" y="118.428" width="2.23445" height="2.23445" transform="rotate(-90 406.669 118.428)" fill="#4E7E2B"/>
<rect x="12.6621" y="291.21" width="35.0064" height="0.744817" fill="#20432C"/>
<rect x="58.8398" y="338.134" width="35.0064" height="0.744817" transform="rotate(-90 58.8398 338.134)" fill="#20432C"/>
<rect x="70.7578" y="291.21" width="35.0064" height="0.744817" fill="#20432C"/>
<rect x="58.8398" y="280.039" width="35.0064" height="0.744817" transform="rotate(-90 58.8398 280.039)" fill="#20432C"/>
<rect x="58.0957" y="290.466" width="2.23445" height="2.23445" fill="#4E7E2B"/>
<rect y="290.466" width="2.23445" height="2.23445" fill="#4E7E2B"/>
<rect x="58.0957" y="350.806" width="2.23445" height="2.23445" transform="rotate(-90 58.0957 350.806)" fill="#4E7E2B"/>
<rect x="116.191" y="290.466" width="2.23445" height="2.23445" fill="#4E7E2B"/>
<rect x="58.0957" y="234.616" width="2.23445" height="2.23445" transform="rotate(-90 58.0957 234.616)" fill="#4E7E2B"/>
<rect x="245.044" y="291.21" width="35.0064" height="0.744817" fill="#20432C"/>
<rect x="291.223" y="338.134" width="35.0064" height="0.744817" transform="rotate(-90 291.223 338.134)" fill="#20432C"/>
<rect x="303.141" y="291.21" width="35.0064" height="0.744817" fill="#20432C"/>
<rect x="291.223" y="280.039" width="35.0064" height="0.744817" transform="rotate(-90 291.223 280.039)" fill="#20432C"/>
<rect x="290.479" y="290.466" width="2.23445" height="2.23445" fill="#4E7E2B"/>
<rect x="232.382" y="290.466" width="2.23445" height="2.23445" fill="#4E7E2B"/>
<rect x="290.479" y="350.806" width="2.23445" height="2.23445" transform="rotate(-90 290.479 350.806)" fill="#4E7E2B"/>
<rect x="348.573" y="290.466" width="2.23445" height="2.23445" fill="#4E7E2B"/>
<rect x="290.479" y="234.616" width="2.23445" height="2.23445" transform="rotate(-90 290.479 234.616)" fill="#4E7E2B"/>
<rect x="12.6621" y="407.401" width="35.0064" height="0.744817" fill="#20432C"/>
<rect x="58.8398" y="454.325" width="35.0064" height="0.744817" transform="rotate(-90 58.8398 454.325)" fill="#20432C"/>
<rect x="70.7578" y="407.401" width="35.0064" height="0.744817" fill="#20432C"/>
<rect x="58.8398" y="396.229" width="35.0064" height="0.744817" transform="rotate(-90 58.8398 396.229)" fill="#20432C"/>
<rect x="58.0957" y="406.657" width="2.23445" height="2.23445" fill="#4E7E2B"/>
<rect y="406.657" width="2.23445" height="2.23445" fill="#4E7E2B"/>
<rect x="58.0957" y="467" width="2.23445" height="2.23445" transform="rotate(-90 58.0957 467)" fill="#4E7E2B"/>
<rect x="116.191" y="406.657" width="2.23445" height="2.23445" fill="#4E7E2B"/>
<rect x="58.0957" y="350.807" width="2.23445" height="2.23445" transform="rotate(-90 58.0957 350.807)" fill="#4E7E2B"/>
<rect x="245.044" y="407.401" width="35.0064" height="0.744817" fill="#20432C"/>
<rect x="291.223" y="454.325" width="35.0064" height="0.744817" transform="rotate(-90 291.223 454.325)" fill="#20432C"/>
<rect x="303.141" y="407.401" width="35.0064" height="0.744817" fill="#20432C"/>
<rect x="291.223" y="396.229" width="35.0064" height="0.744817" transform="rotate(-90 291.223 396.229)" fill="#20432C"/>
<rect x="290.479" y="406.657" width="2.23445" height="2.23445" fill="#4E7E2B"/>
<rect x="232.382" y="406.657" width="2.23445" height="2.23445" fill="#4E7E2B"/>
<rect x="290.479" y="467" width="2.23445" height="2.23445" transform="rotate(-90 290.479 467)" fill="#4E7E2B"/>
<rect x="348.573" y="406.657" width="2.23445" height="2.23445" fill="#4E7E2B"/>
<rect x="290.479" y="350.806" width="2.23445" height="2.23445" transform="rotate(-90 290.479 350.806)" fill="#4E7E2B"/>
<rect x="128.854" y="291.21" width="35.0064" height="0.744817" fill="#20432C"/>
<rect x="175.033" y="338.134" width="35.0064" height="0.744817" transform="rotate(-90 175.033 338.134)" fill="#20432C"/>
<rect x="186.949" y="291.21" width="35.0064" height="0.744817" fill="#20432C"/>
<rect x="175.033" y="280.039" width="35.0064" height="0.744817" transform="rotate(-90 175.033 280.039)" fill="#20432C"/>
<rect x="174.287" y="290.466" width="2.23445" height="2.23445" fill="#4E7E2B"/>
<rect x="116.191" y="290.466" width="2.23445" height="2.23445" fill="#4E7E2B"/>
<rect x="174.287" y="350.807" width="2.23445" height="2.23445" transform="rotate(-90 174.287 350.807)" fill="#4E7E2B"/>
<rect x="232.383" y="290.466" width="2.23445" height="2.23445" fill="#4E7E2B"/>
<rect x="174.287" y="234.616" width="2.23445" height="2.23445" transform="rotate(-90 174.287 234.616)" fill="#4E7E2B"/>
<rect x="361.236" y="291.21" width="35.0064" height="0.744817" fill="#20432C"/>
<rect x="407.415" y="338.134" width="35.0064" height="0.744817" transform="rotate(-90 407.415 338.134)" fill="#20432C"/>
<rect x="419.332" y="291.21" width="35.0064" height="0.744817" fill="#20432C"/>
<rect x="407.415" y="280.039" width="35.0064" height="0.744817" transform="rotate(-90 407.415 280.039)" fill="#20432C"/>
<rect x="406.669" y="290.466" width="2.23445" height="2.23445" fill="#4E7E2B"/>
<rect x="348.574" y="290.466" width="2.23445" height="2.23445" fill="#4E7E2B"/>
<rect x="406.669" y="350.807" width="2.23445" height="2.23445" transform="rotate(-90 406.669 350.807)" fill="#4E7E2B"/>
<rect x="464.765" y="290.466" width="2.23445" height="2.23445" fill="#4E7E2B"/>
<rect x="406.669" y="234.616" width="2.23445" height="2.23445" transform="rotate(-90 406.669 234.616)" fill="#4E7E2B"/>
<rect x="128.854" y="407.401" width="35.0064" height="0.744817" fill="#20432C"/>
<rect x="175.033" y="454.325" width="35.0064" height="0.744817" transform="rotate(-90 175.033 454.325)" fill="#20432C"/>
<rect x="186.949" y="407.401" width="35.0064" height="0.744817" fill="#20432C"/>
<rect x="175.033" y="396.229" width="35.0064" height="0.744817" transform="rotate(-90 175.033 396.229)" fill="#20432C"/>
<rect x="174.287" y="406.657" width="2.23445" height="2.23445" fill="#4E7E2B"/>
<rect x="116.191" y="406.657" width="2.23445" height="2.23445" fill="#4E7E2B"/>
<rect x="174.287" y="467" width="2.23445" height="2.23445" transform="rotate(-90 174.287 467)" fill="#4E7E2B"/>
<rect x="232.383" y="406.657" width="2.23445" height="2.23445" fill="#4E7E2B"/>
<rect x="174.287" y="350.807" width="2.23445" height="2.23445" transform="rotate(-90 174.287 350.807)" fill="#4E7E2B"/>
<rect x="361.236" y="407.401" width="35.0064" height="0.744817" fill="#20432C"/>
<rect x="407.415" y="454.325" width="35.0064" height="0.744817" transform="rotate(-90 407.415 454.325)" fill="#20432C"/>
<rect x="419.332" y="407.401" width="35.0064" height="0.744817" fill="#20432C"/>
<rect x="407.415" y="396.229" width="35.0064" height="0.744817" transform="rotate(-90 407.415 396.229)" fill="#20432C"/>
<rect x="406.669" y="406.657" width="2.23445" height="2.23445" fill="#4E7E2B"/>
<rect x="348.574" y="406.657" width="2.23445" height="2.23445" fill="#4E7E2B"/>
<rect x="406.669" y="467" width="2.23445" height="2.23445" transform="rotate(-90 406.669 467)" fill="#4E7E2B"/>
<rect x="464.765" y="406.657" width="2.23445" height="2.23445" fill="#4E7E2B"/>
<rect x="406.669" y="350.807" width="2.23445" height="2.23445" transform="rotate(-90 406.669 350.807)" fill="#4E7E2B"/>
</svg>
