<svg width="190" height="47" viewBox="0 0 190 47" fill="none" xmlns="http://www.w3.org/2000/svg">
<g clip-path="url(#clip0_2432_26690)">
<path d="M63.2597 15.7251C64.8881 12.892 67.6194 11.2441 71.0347 11.2441C77.6002 11.2441 81.6979 15.5715 81.6979 22.5784V36.9529H75.8149V23.3013C75.8149 19.3345 73.3472 16.7585 69.6165 16.7585C65.8859 16.7585 63.2613 19.3345 63.2613 23.3013V36.9529H57.4316V11.7584H63.2613V15.7251H63.2597Z" fill="url(#paint0_linear_2432_26690)"/>
<path d="M113.554 36.9509H107.673V32.52C105.832 35.6637 102.682 37.4651 98.5846 37.4651C91.7022 37.4651 86.293 31.5918 86.293 24.3278C86.293 17.0638 91.7022 11.2422 98.5846 11.2422C102.681 11.2422 105.832 13.0453 107.673 16.1873V11.7564H113.554V36.9493V36.9509ZM99.8443 32.0058C104.309 32.0058 107.671 28.7085 107.671 24.3294C107.671 19.9503 104.309 16.7048 99.8443 16.7048C95.3795 16.7048 92.0693 20.1039 92.0693 24.3294C92.0693 28.5549 95.4846 32.0058 99.8443 32.0058Z" fill="url(#paint1_linear_2432_26690)"/>
<path d="M118.084 24.3273C118.084 17.0633 123.493 11.2417 130.376 11.2417C134.472 11.2417 137.623 13.0447 139.464 16.1868V0.885742H145.345V36.9488H139.464V32.5179C137.623 35.6616 134.473 37.463 130.376 37.463C123.493 37.463 118.084 31.5897 118.084 24.3257V24.3273ZM131.635 32.0037C136.1 32.0037 139.462 28.7064 139.462 24.3273C139.462 19.9482 136.1 16.7026 131.635 16.7026C127.17 16.7026 123.86 20.1018 123.86 24.3273C123.86 28.5528 127.276 32.0037 131.635 32.0037Z" fill="url(#paint2_linear_2432_26690)"/>
<path d="M155.083 0.0625C157.185 0.0625 158.865 1.76208 158.865 3.77214C158.865 5.7822 157.185 7.43003 155.083 7.43003C152.98 7.43003 151.354 5.73045 151.354 3.77214C151.354 1.81382 153.034 0.0625 155.083 0.0625ZM157.972 11.7574V36.9503H152.143V11.7574H157.972Z" fill="url(#paint3_linear_2432_26690)"/>
<path d="M189.776 36.9509H183.892V32.52C182.053 35.6637 178.901 37.4651 174.805 37.4651C167.925 37.4651 162.514 31.5918 162.514 24.3278C162.514 17.0638 167.925 11.2422 174.805 11.2422C178.901 11.2422 182.053 13.0453 183.892 16.1873V11.7564H189.776V36.9493V36.9509ZM176.067 32.0058C180.531 32.0058 183.893 28.7085 183.893 24.3294C183.893 19.9503 180.531 16.7048 176.067 16.7048C171.602 16.7048 168.292 20.1039 168.292 24.3294C168.292 28.5549 171.707 32.0058 176.067 32.0058Z" fill="url(#paint4_linear_2432_26690)"/>
<path d="M53.1845 11.7578L44.3373 39.3133C42.8383 44.0029 40.2283 46.3234 35.2007 46.3234H30.3187L30.4044 41.1988H34.3679C36.834 41.1988 37.8964 40.2803 39.1545 36.9442H35.3608L26.8047 11.7578H33.1001L39.9275 34.4296L46.8891 11.7578H53.1845Z" fill="url(#paint5_linear_2432_26690)"/>
<path d="M23.0939 19.4536C21.6466 17.5972 20.0133 16.4636 18.0275 15.1764L15.8282 13.9199L12.8738 18.4914L12.691 18.3783C12.4776 18.244 12.1396 18.0516 11.7386 17.822C10.8378 17.3077 9.60398 16.6043 8.7647 15.9866C6.00269 13.9587 5.82966 11.2468 6.58808 9.38715C7.55834 6.99869 10.1166 5.61607 13.4155 5.6856C14.6946 5.71633 15.8298 5.88289 16.889 6.19176C17.2901 6.30819 17.6749 6.44079 18.0323 6.58148C18.9686 6.94694 19.8483 7.41267 20.6456 7.9641L20.8235 8.087L23.9622 3.27935L23.7876 3.16292C22.6702 2.42067 21.4606 1.79323 20.1928 1.29516C16.619 -0.103631 12.6619 -0.386625 9.27409 0.530273C5.7294 1.49083 2.92211 3.81623 1.57021 6.90975C-0.0113197 10.5337 0.410745 14.5878 2.67307 17.4921C4.11715 19.3453 5.75204 20.4789 7.74593 21.7742L9.90153 23.042L12.8738 18.4931L13.0549 18.6063C13.2813 18.747 13.6451 18.9491 14.0672 19.182C14.9582 19.6752 16.1791 20.3527 17.0006 20.9559C19.7642 22.987 19.9389 25.6973 19.1805 27.5586C18.207 29.947 15.6746 31.3377 12.3482 31.2585C11.0869 31.231 9.95004 31.0661 8.87628 30.754C8.49303 30.6424 8.10816 30.5114 7.73299 30.3658C6.05444 29.7077 4.55053 28.7261 3.38783 27.5278L3.20348 27.3386L0 32.2449L0.137454 32.3662C1.70604 33.744 3.53499 34.8485 5.57416 35.6473C7.75725 36.5028 10.0956 36.9539 12.3353 36.9539C13.7745 36.9539 15.1733 36.7728 16.4912 36.4138C20.0343 35.4516 22.84 33.1262 24.1919 30.0343C25.7766 26.4104 25.3546 22.3563 23.0922 19.452L23.0939 19.4536Z" fill="url(#paint6_linear_2432_26690)"/>
</g>
<defs>
<linearGradient id="paint0_linear_2432_26690" x1="80.1307" y1="9.78731" x2="63.0742" y2="40.5355" gradientUnits="userSpaceOnUse">
<stop stop-color="#35FDAD"/>
<stop offset="0.413462" stop-color="#28C2DE"/>
<stop offset="1" stop-color="#8B81FF"/>
</linearGradient>
<linearGradient id="paint1_linear_2432_26690" x1="111.793" y1="9.75622" x2="95.3164" y2="42.4715" gradientUnits="userSpaceOnUse">
<stop stop-color="#35FDAD"/>
<stop offset="0.413462" stop-color="#28C2DE"/>
<stop offset="1" stop-color="#8B81FF"/>
</linearGradient>
<linearGradient id="paint2_linear_2432_26690" x1="143.585" y1="-1.18697" x2="116.675" y2="37.1172" gradientUnits="userSpaceOnUse">
<stop stop-color="#35FDAD"/>
<stop offset="0.413462" stop-color="#28C2DE"/>
<stop offset="1" stop-color="#8B81FF"/>
</linearGradient>
<linearGradient id="paint3_linear_2432_26690" x1="158.38" y1="-2.02781" x2="138.89" y2="5.55204" gradientUnits="userSpaceOnUse">
<stop stop-color="#35FDAD"/>
<stop offset="0.413462" stop-color="#28C2DE"/>
<stop offset="1" stop-color="#8B81FF"/>
</linearGradient>
<linearGradient id="paint4_linear_2432_26690" x1="188.016" y1="9.75622" x2="171.539" y2="42.4723" gradientUnits="userSpaceOnUse">
<stop stop-color="#35FDAD"/>
<stop offset="0.413462" stop-color="#28C2DE"/>
<stop offset="1" stop-color="#8B81FF"/>
</linearGradient>
<linearGradient id="paint5_linear_2432_26690" x1="51.4808" y1="9.79909" x2="26.2611" y2="46.5591" gradientUnits="userSpaceOnUse">
<stop stop-color="#35FDAD"/>
<stop offset="0.413462" stop-color="#28C2DE"/>
<stop offset="1" stop-color="#8B81FF"/>
</linearGradient>
<linearGradient id="paint6_linear_2432_26690" x1="23.5173" y1="-2.09406" x2="-4.41828" y2="34.2043" gradientUnits="userSpaceOnUse">
<stop stop-color="#35FDAD"/>
<stop offset="0.413462" stop-color="#28C2DE"/>
<stop offset="1" stop-color="#8B81FF"/>
</linearGradient>
<clipPath id="clip0_2432_26690">
<rect width="189.777" height="46.3219" fill="white"/>
</clipPath>
</defs>
</svg>
