<svg width="190" height="47" viewBox="0 0 190 47" fill="none" xmlns="http://www.w3.org/2000/svg">
<g clip-path="url(#clip0_981_11358)">
<path d="M63.2597 15.7251C64.8881 12.892 67.6194 11.2441 71.0347 11.2441C77.6002 11.2441 81.6979 15.5715 81.6979 22.5784V36.9529H75.8149V23.3013C75.8149 19.3345 73.3472 16.7585 69.6165 16.7585C65.8859 16.7585 63.2613 19.3345 63.2613 23.3013V36.9529H57.4316V11.7584H63.2613V15.7251H63.2597Z" fill="#003530"/>
<path d="M113.554 36.9509H107.673V32.52C105.832 35.6637 102.682 37.4651 98.5846 37.4651C91.7022 37.4651 86.293 31.5918 86.293 24.3278C86.293 17.0638 91.7022 11.2422 98.5846 11.2422C102.681 11.2422 105.832 13.0453 107.673 16.1873V11.7564H113.554V36.9493V36.9509ZM99.8443 32.0058C104.309 32.0058 107.671 28.7085 107.671 24.3294C107.671 19.9503 104.309 16.7048 99.8443 16.7048C95.3795 16.7048 92.0693 20.1039 92.0693 24.3294C92.0693 28.5549 95.4846 32.0058 99.8443 32.0058Z" fill="#003530"/>
<path d="M118.084 24.3273C118.084 17.0633 123.493 11.2417 130.376 11.2417C134.472 11.2417 137.623 13.0447 139.464 16.1868V0.885742H145.345V36.9488H139.464V32.5179C137.623 35.6616 134.473 37.463 130.376 37.463C123.493 37.463 118.084 31.5897 118.084 24.3257V24.3273ZM131.635 32.0037C136.1 32.0037 139.462 28.7064 139.462 24.3273C139.462 19.9482 136.1 16.7026 131.635 16.7026C127.17 16.7026 123.86 20.1018 123.86 24.3273C123.86 28.5528 127.276 32.0037 131.635 32.0037Z" fill="#003530"/>
<path d="M155.083 0.0625C157.185 0.0625 158.865 1.76208 158.865 3.77214C158.865 5.7822 157.185 7.43003 155.083 7.43003C152.98 7.43003 151.354 5.73045 151.354 3.77214C151.354 1.81382 153.034 0.0625 155.083 0.0625ZM157.972 11.7574V36.9503H152.143V11.7574H157.972Z" fill="#003530"/>
<path d="M189.776 36.9509H183.892V32.52C182.053 35.6637 178.901 37.4651 174.805 37.4651C167.925 37.4651 162.514 31.5918 162.514 24.3278C162.514 17.0638 167.925 11.2422 174.805 11.2422C178.901 11.2422 182.053 13.0453 183.892 16.1873V11.7564H189.776V36.9493V36.9509ZM176.067 32.0058C180.531 32.0058 183.893 28.7085 183.893 24.3294C183.893 19.9503 180.531 16.7048 176.067 16.7048C171.602 16.7048 168.292 20.1039 168.292 24.3294C168.292 28.5549 171.707 32.0058 176.067 32.0058Z" fill="#003530"/>
<path d="M53.1845 11.7578L44.3373 39.3133C42.8383 44.0029 40.2283 46.3234 35.2007 46.3234H30.3187L30.4044 41.1988H34.3679C36.834 41.1988 37.8964 40.2803 39.1545 36.9442H35.3608L26.8047 11.7578H33.1001L39.9275 34.4296L46.8891 11.7578H53.1845Z" fill="#003530"/>
<path d="M23.0929 19.4536C21.6456 17.5972 20.0123 16.4636 18.0265 15.1764L15.8272 13.9199L12.8728 18.4914L12.6901 18.3783C12.4766 18.244 12.1386 18.0516 11.7376 17.822C10.8369 17.3077 9.603 16.6043 8.76373 15.9866C6.00171 13.9587 5.82868 11.2468 6.58711 9.38715C7.55737 6.99869 10.1156 5.61607 13.4145 5.6856C14.6936 5.71633 15.8289 5.88289 16.8881 6.19176C17.2891 6.30819 17.674 6.44079 18.0314 6.58148C18.9677 6.94694 19.8474 7.41267 20.6446 7.9641L20.8225 8.087L23.9613 3.27935L23.7866 3.16292C22.6692 2.42067 21.4596 1.79323 20.1918 1.29516C16.618 -0.103631 12.6609 -0.386625 9.27312 0.530273C5.72842 1.49083 2.92113 3.81623 1.56923 6.90975C-0.0122962 10.5337 0.409768 14.5878 2.6721 17.4921C4.11617 19.3453 5.75106 20.4789 7.74495 21.7742L9.90055 23.042L12.8728 18.4931L13.0539 18.6063C13.2803 18.747 13.6441 18.9491 14.0662 19.182C14.9572 19.6752 16.1782 20.3527 16.9996 20.9559C19.7633 22.987 19.9379 25.6973 19.1795 27.5586C18.206 29.947 15.6736 31.3377 12.3472 31.2585C11.0859 31.231 9.94907 31.0661 8.87531 30.754C8.49205 30.6424 8.10718 30.5114 7.73202 30.3658C6.05346 29.7077 4.54955 28.7261 3.38686 27.5278L3.20251 27.3386L-0.000976562 32.2449L0.136477 32.3662C1.70507 33.744 3.53401 34.8485 5.57318 35.6473C7.75627 36.5028 10.0946 36.9539 12.3343 36.9539C13.7735 36.9539 15.1723 36.7728 16.4903 36.4138C20.0333 35.4516 22.839 33.1262 24.1909 30.0343C25.7757 26.4104 25.3536 22.3563 23.0913 19.452L23.0929 19.4536Z" fill="#003530"/>
</g>
<defs>
<clipPath id="clip0_981_11358">
<rect width="189.777" height="46.3219" fill="white"/>
</clipPath>
</defs>
</svg>
